<svg id="Layer_3" enable-background="new 0 0 64 64" height="512" viewBox="0 0 64 64" width="512" xmlns="http://www.w3.org/2000/svg"><g><path d="m41 36 8.849 1.264c2.955.422 5.151 2.954 5.151 5.94v18.796h-46v-18.796c0-2.986 2.196-5.517 5.151-5.94l8.849-1.264" fill="#758190"/><path d="m35 56 3-12-6-6-6 6 3 12z" fill="#e7e4dd"/><path d="m30 42-1 14 3 6 3-6-1-14" fill="#f2c351"/><path d="m32.148 42h-2.148l-.685 9.585c1.73-2.799 2.757-6.071 2.833-9.585z" fill="#f7d881"/><path d="m32 38 6 6 3-8-6-1-3 3-3-3-6 1 3 8z" fill="#cbc3b6"/><path d="m34 40v2c0 1.105-.895 2-2 2-1.105 0-2-.895-2-2v-2l2-2z" fill="#c16b3f"/><path d="m32 38-3-3-6 1 3 8z" fill="#d5cec2"/><path d="m45 14-1.919-3.838 1.647-1.647-4.243-4.243-1.647 1.647-3.838-1.919v-2h-6v2l-3.838 1.919-1.647-1.647-4.243 4.243 1.647 1.647-1.919 3.838h-2v6h2l1.919 3.838-1.647 1.647 4.243 4.243 1.647-1.647 3.838 1.919v2h6v-2l3.838-1.919 1.647 1.647 4.243-4.243-1.647-1.647 1.919-3.838h2v-6zm-13 12c-4.971 0-9-4.029-9-9s4.029-9 9-9 9 4.029 9 9-4.029 9-9 9z" fill="#8c8787"/><path d="m29 32v3l3 3 3-3v-3" fill="#fadfb2"/><g><path d="m16 45.999h1.999v15.999h-1.999z" fill="#8892a0"/></g><g><path d="m44.999 45.999h1.999v15.999h-1.999z" fill="#8892a0"/></g><path d="m31.845 38.155c-.264.264-1.845 1.845-1.845 1.845v2c0 1.104.895 2 2 2 .1-.793.169-1.595.169-2.415 0-1.173-.122-2.316-.324-3.43z" fill="#e39854"/><g><path d="m41.999 17c0-5.514-4.485-10-9.999-10-5.515 0-10 4.486-10 10s4.485 10 10 10c5.514-.001 9.999-4.487 9.999-10zm-17.999 0c0-4.412 3.588-8 8-8 4.411 0 7.999 3.588 7.999 8 0 4.411-3.588 8-7.999 8-4.412-.001-8-3.589-8-8z"/><path d="m55.998 43.202c0-3.461-2.583-6.44-6.01-6.929l-8.822-1.261c-.001 0-.001-.001-.002-.001l-5.165-.861v-2.15-1.382l2.641-1.32 1.137 1.137c.188.188.442.293.707.293.266 0 .52-.105.708-.293l4.243-4.243c.188-.188.293-.442.293-.708-.001-.265-.105-.52-.294-.707l-1.137-1.137 1.32-2.641h1.382c.553 0 1-.447 1-1v-6c0-.553-.447-1-1-1h-1.382l-1.32-2.641 1.137-1.137c.188-.188.293-.442.294-.707 0-.266-.105-.52-.293-.708l-4.243-4.243c-.376-.373-1.039-.375-1.415 0l-1.137 1.139-2.641-1.32v-1.382c0-.553-.447-1-1-1h-5.999c-.553 0-1 .447-1 1v1.382l-2.642 1.32-1.137-1.137c-.188-.188-.442-.293-.707-.293 0 0 0 0-.001 0-.265 0-.52.105-.707.293l-4.243 4.243c-.188.188-.293.442-.293.708.001.265.105.52.294.707l1.137 1.137-1.319 2.64h-1.382c-.553 0-1 .447-1 1v6c0 .553.447 1 1 1h1.382l1.32 2.641-1.138 1.137c-.188.188-.293.442-.294.707 0 .266.105.52.293.708l4.243 4.243c.378.375 1.041.377 1.415 0l1.137-1.137 2.642 1.318v1.382 2.151l-5.166.861c-.001 0-.001.001-.002.001l-8.823 1.261c-3.426.489-6.009 3.468-6.009 6.929v18.796c0 .553.447 1 .999 1l46 .002c.266 0 .521-.105.708-.293s.293-.442.292-.708zm-20.449 6.47-.516-7.224 1.858 1.858zm-1.568 6.125-1.982 3.965-1.982-3.965.789-11.05c.367.16.77.251 1.195.251.424 0 .826-.091 1.192-.25zm-6.875-11.491 1.858-1.858-.516 7.224zm3.893-3.893 1-1 .999.999v1.588c0 .551-.448.998-.999.998-.552 0-1-.447-1-.998zm3-5.829-2 2-1.999-2v-1.585h3.999zm3.608 7.609-4.194-4.194 1.93-1.93 4.294.716zm-12-15.007c-.383-.191-.85-.117-1.154.188l-.939.939-2.828-2.828.939-.94c.305-.304.381-.77.187-1.154l-1.919-3.838c-.169-.339-.516-.553-.894-.553h-1v-4h1c.378 0 .725-.214.894-.553l1.919-3.838c.193-.385.117-.85-.187-1.154l-.939-.94 2.828-2.828.939.939c.305.305.771.383 1.154.188l3.839-1.919c.339-.171.554-.517.554-.895v-1h3.999v1c0 .378.215.725.553.894l3.838 1.919c.389.195.851.118 1.155-.188l.939-.939 2.828 2.828-.939.94c-.305.305-.381.77-.188 1.155l1.92 3.838c.169.338.516.553.894.553h1v4h-1c-.378 0-.725.214-.894.553l-1.92 3.838c-.193.385-.117.85.188 1.155l.939.94-2.828 2.828-.939-.939c-.305-.304-.768-.379-1.154-.188l-3.838 1.919c-.339.169-.554.516-.554.894v1h-3.999v-1c0-.378-.215-.725-.554-.894zm3.049 8.883.656.656 1.272 1.273-4.194 4.195-2.028-5.408zm-18.656 7.133c0-2.472 1.845-4.6 4.292-4.949l8.053-1.151 2.697 7.191 2.988 11.948.005-.001c.018.07.038.14.071.205l2.276 4.554h-12.383v-15h-1.999v15h-6zm36.998 17.797v-15h-1.999v15h-11.383l2.277-4.554c.033-.065.053-.135.071-.205l.005.001 2.987-11.948 2.698-7.191 8.053 1.151c2.447.35 4.292 2.478 4.292 4.95l.001 17.796z"/></g></g></svg>