<svg height="512pt" viewBox="0 0 512 512" width="512pt" xmlns="http://www.w3.org/2000/svg"><path d="m512 256c0 141.386719-114.613281 256-256 256s-256-114.613281-256-256 114.613281-256 256-256 256 114.613281 256 256zm0 0" fill="#ff583e"/><path d="m509.882812 289.023438-119.023437-119.023438-16.503906 37.910156-112.355469-112.355468-126.167969 79.730468 40.148438 40.148438-6.917969.621094 44.761719 44.761718-129.421875 90.558594 160.363281 160.367188c3.726563.160156 7.46875.257812 11.234375.257812 130.195312 0 237.683594-97.191406 253.882812-222.976562zm0 0" fill="#f92814"/><path d="m337.460938 351.375-8.308594-38.484375c-4.011719-18.582031-17.304688-33.792969-35.179688-40.261719l-30.074218-10.882812c-12.351563-4.472656-21.894532-14.480469-25.769532-27.03125l-5.765625-18.660156h-43.699219l-5.761718 18.660156c-3.878906 12.550781-13.417969 22.558594-25.773438 27.027344l-30.074218 10.882812c-17.875 6.46875-31.164063 21.679688-35.175782 40.261719l-8.308594 38.484375zm0 0" fill="#78beff"/><path d="m278.214844 134.808594c-4.230469-36.472656-32.914063-64.695313-67.699219-64.695313s-63.472656 28.222657-67.703125 64.695313c-9.730469 2.414062-15.234375 15.011718-12.304688 28.414062 2.625 12.003906 11.125 20.601563 19.945313 20.925782 11.546875 29.285156 34.113281 54.878906 60.0625 54.878906s48.511719-25.59375 60.058594-54.878906c8.824219-.324219 17.324219-8.921876 19.949219-20.925782 2.925781-13.402344-2.574219-26-12.308594-28.414062zm0 0" fill="#abddff"/><path d="m278.214844 134.808594c-4.230469-36.472656-32.914063-64.695313-67.699219-64.695313-.011719 0-.027344.003907-.039063.003907v168.910156h.039063c25.949219 0 48.511719-25.59375 60.058594-54.878906 8.824219-.324219 17.324219-8.921876 19.949219-20.925782 2.925781-13.402344-2.574219-26-12.308594-28.414062zm0 0" fill="#78beff"/><path d="m375.859375 185.878906v-.878906h-110.722656v.878906c0 25.648438-20.792969 46.441406-46.445313 46.441406v85.117188c0 34.039062 16.886719 65.859375 45.074219 84.941406l56.730469 38.402344 56.734375-38.402344c28.183593-19.082031 45.070312-50.902344 45.070312-84.941406v-85.117188c-25.648437 0-46.441406-20.792968-46.441406-46.441406zm0 0" fill="#4a98f7"/><path d="m422.300781 232.320312c-25.648437 0-46.441406-20.792968-46.441406-46.441406v-.878906h-55.859375l.496094 255.445312v.335938l56.734375-38.402344c28.183593-19.078125 45.070312-50.902344 45.070312-84.9375zm0 0" fill="#4a7aff"/><path d="m320.496094 458.894531-65.140625-44.09375c-32.347657-21.898437-51.664063-58.296875-51.664063-97.359375v-100.121094h15c17.339844 0 31.445313-14.105468 31.445313-31.441406v-15.878906h140.722656v15.878906c0 17.335938 14.105469 31.441406 31.441406 31.441406h15v100.117188c0 39.066406-19.3125 75.464844-51.664062 97.363281zm-86.804688-213.425781v71.972656c0 29.09375 14.386719 56.207032 38.480469 72.515625l48.324219 32.710938 48.324218-32.710938c24.09375-16.308593 38.480469-43.417969 38.480469-72.515625v-71.972656c-22.144531-5.574219-39.546875-23.203125-44.804687-45.46875h-84c-5.253906 22.265625-22.660156 39.894531-44.804688 45.46875zm0 0" fill="#2d5396"/><path d="m320.496094 458.894531 65.140625-44.09375c32.351562-21.898437 51.664062-58.296875 51.664062-97.359375v-100.121094h-15c-17.335937 0-31.441406-14.105468-31.441406-31.441406v-15.878906h-70.859375v30h42.496094c5.257812 22.265625 22.660156 39.894531 44.804687 45.46875v71.972656c0 29.09375-14.386719 56.207032-38.480469 72.515625l-48.324218 32.710938zm0 0" fill="#1b3b6b"/><path d="m303.726562 366.816406-53.1875-53.183594 24.75-24.75 28.4375 28.433594 61.976563-61.976562 24.75 24.75zm0 0" fill="#fff"/><path d="m365.703125 255.339844-45.703125 45.703125v49.5l70.453125-70.453125zm0 0" fill="#dbeeff"/></svg>